<svg id="Layer_1" enable-background="new 0 0 256 256" height="512" viewBox="0 0 256 256" width="512" xmlns="http://www.w3.org/2000/svg"><g><g><path d="m209.946 28.622c-17.568 0-31.811 14.242-31.811 31.811v18.322c0 17.568 14.242 31.811 31.811 31.811 17.568 0 31.811-14.242 31.811-31.811v-18.323c0-17.568-14.242-31.81-31.811-31.81z" fill="#ff9f70"/></g><g><path d="m46.054 28.622c17.569 0 31.811 14.242 31.811 31.811v18.322c0 17.568-14.242 31.811-31.81 31.811-17.569 0-31.811-14.242-31.811-31.811v-18.323c-.001-17.568 14.241-31.81 31.81-31.81z" fill="#ff9f70"/></g><g><path d="m209.946 28.622c-1.356 0-2.689.095-4 .259 15.679 1.969 27.811 15.339 27.811 31.551v18.322c0 16.213-12.132 29.583-27.811 31.551 1.311.165 2.644.259 4 .259 17.568 0 31.811-14.242 31.811-31.811v-18.321c0-17.568-14.242-31.81-31.811-31.81z" fill="#e18152"/></g><g><path d="m46.054 110.564c1.356 0 2.689-.095 4-.259-15.679-1.969-27.811-15.339-27.811-31.551v-18.322c0-16.213 12.132-29.583 27.811-31.551-1.311-.165-2.644-.259-4-.259-17.569 0-31.811 14.242-31.811 31.81v18.322c0 17.568 14.242 31.81 31.811 31.81z" fill="#ffbd8e"/></g><g><g><path d="m126.631 230.086h61.578c4.946 0 9.318-3.214 10.794-7.935l21.737-69.542c1.864-5.962-1.458-12.305-7.42-14.168-5.959-1.864-12.304 1.459-14.168 7.42l-19.257 61.607h-53.265c-6.246 0-11.309 5.063-11.309 11.309s5.064 11.309 11.31 11.309z" fill="#8852a8"/></g></g><g><g><path d="m188.209 232.086h-61.578c-7.339 0-13.309-5.97-13.309-13.309s5.97-13.309 13.309-13.309h51.794l18.819-60.204c1.061-3.393 3.379-6.17 6.529-7.819 3.15-1.65 6.754-1.974 10.145-.913 3.393 1.06 6.169 3.378 7.819 6.527 1.649 3.149 1.974 6.752.913 10.146l-21.737 69.542c-1.747 5.586-6.852 9.339-12.704 9.339zm-61.578-22.618c-5.133 0-9.309 4.176-9.309 9.309s4.176 9.309 9.309 9.309h61.578c4.093 0 7.664-2.625 8.885-6.532l21.737-69.542c.742-2.374.515-4.894-.639-7.096-1.153-2.203-3.096-3.824-5.469-4.565-2.372-.744-4.892-.517-7.095.638-2.204 1.154-3.825 3.096-4.567 5.469l-19.258 61.607c-.261.835-1.034 1.403-1.909 1.403z" fill="#690589"/></g></g><g><path d="m167.893 251.058h84.107v-86.893c0-23.226-18.828-42.054-42.054-42.054-23.226 0-42.054 18.828-42.054 42.054v86.893z" fill="#8852a8"/></g><g><path d="m88.107 251.058h-84.107v-86.893c0-23.226 18.828-42.054 42.054-42.054 23.225 0 42.054 18.828 42.054 42.054v86.893z" fill="#526faa"/></g><g><path d="m209.946 122.112c-1.693 0-3.359.112-5 .306 20.867 2.474 37.054 20.215 37.054 41.747v86.893h10v-86.893c0-23.225-18.828-42.053-42.054-42.053z" fill="#6a348a"/></g><g><path d="m46.054 122.112c1.693 0 3.359.112 5 .306-20.867 2.474-37.054 20.215-37.054 41.747v86.893h-10v-86.893c0-23.225 18.828-42.053 42.054-42.053z" fill="#708dc8"/></g><g><path d="m88.107 253.058h-84.107c-1.104 0-2-.896-2-2v-86.893c0-24.292 19.762-44.054 44.054-44.054s44.054 19.762 44.054 44.054v86.893c-.001 1.105-.896 2-2.001 2zm-82.107-4h80.107v-84.893c0-22.085-17.968-40.054-40.054-40.054s-40.053 17.969-40.053 40.055z" fill="#690589"/></g><g><path d="m46.054 112.564c-18.643 0-33.811-15.167-33.811-33.811v-18.321c0-18.643 15.167-33.811 33.811-33.811s33.811 15.167 33.811 33.811v18.321c-.001 18.643-15.168 33.811-33.811 33.811zm0-81.942c-16.438 0-29.811 13.373-29.811 29.811v18.321c0 16.438 13.373 29.811 29.811 29.811s29.811-13.373 29.811-29.811v-18.322c-.001-16.437-13.374-29.81-29.811-29.81z" fill="#690589"/></g><g><path d="m252 253.058h-84.107c-1.104 0-2-.896-2-2v-86.893c0-24.292 19.762-44.054 44.054-44.054s44.053 19.763 44.053 44.055v86.893c0 1.104-.896 1.999-2 1.999zm-82.107-4h80.107v-84.893c0-22.085-17.968-40.054-40.054-40.054s-40.054 17.968-40.054 40.054v84.893z" fill="#690589"/></g><g><path d="m209.946 112.564c-18.643 0-33.811-15.167-33.811-33.811v-18.321c0-18.643 15.167-33.811 33.811-33.811s33.811 15.167 33.811 33.811v18.321c0 18.643-15.168 33.811-33.811 33.811zm0-81.942c-16.438 0-29.811 13.373-29.811 29.811v18.321c0 16.438 13.373 29.811 29.811 29.811s29.811-13.373 29.811-29.811v-18.322c0-16.437-13.373-29.81-29.811-29.81z" fill="#690589"/></g><g><path d="m161.776 105.961h-67.552c-2.25 0-4.073-1.824-4.073-4.073v-92.873c0-2.25 1.824-4.073 4.073-4.073h67.552c2.25 0 4.073 1.824 4.073 4.073v92.872c0 2.25-1.823 4.074-4.073 4.074z" fill="#f4efed"/></g><g><path d="m161.776 4.942h-6.073c2.25 0 4.073 1.824 4.073 4.073v92.872c0 2.25-1.824 4.073-4.073 4.073h6.073c2.25 0 4.073-1.824 4.073-4.073v-92.872c0-2.249-1.823-4.073-4.073-4.073z" fill="#d6d1cf"/></g><g><path d="m94.224 105.961h6.073c-2.25 0-4.073-1.824-4.073-4.073v-92.873c0-2.25 1.824-4.073 4.073-4.073h-6.073c-2.25 0-4.073 1.824-4.073 4.073v92.872c0 2.25 1.823 4.074 4.073 4.074z" fill="#fff"/></g><g><path d="m161.776 107.96h-67.552c-3.349 0-6.073-2.725-6.073-6.073v-92.872c0-3.349 2.725-6.073 6.073-6.073h67.552c3.349 0 6.073 2.725 6.073 6.073v92.872c0 3.349-2.724 6.073-6.073 6.073zm-67.552-101.018c-1.143 0-2.073.93-2.073 2.073v92.872c0 1.143.93 2.073 2.073 2.073h67.552c1.143 0 2.073-.93 2.073-2.073v-92.872c0-1.143-.93-2.073-2.073-2.073z" fill="#690589"/></g><g><path d="m154.021 74.742h-52.043c-1.104 0-2-.896-2-2s.896-2 2-2h52.043c1.104 0 2 .896 2 2s-.895 2-2 2z" fill="#690589"/></g><g><path d="m154.021 92.034h-52.043c-1.104 0-2-.896-2-2s.896-2 2-2h52.043c1.104 0 2 .896 2 2s-.895 2-2 2z" fill="#690589"/></g><g><g><path d="m128.534 15.845c1.281 0 2.295 1.015 2.295 2.296v1.174c3.149.374 5.819 1.388 8.274 2.936.854.481 1.602 1.281 1.602 2.563 0 1.654-1.335 2.936-2.989 2.936-.534 0-1.067-.16-1.601-.48-1.868-1.121-3.684-1.922-5.498-2.349v10.249c8.113 2.029 11.583 5.285 11.583 10.996 0 5.872-4.59 9.769-11.37 10.409v3.203c0 1.281-1.014 2.295-2.295 2.295s-2.349-1.014-2.349-2.295v-3.31c-4.003-.427-7.686-1.868-10.943-4.163-.908-.588-1.442-1.442-1.442-2.563 0-1.655 1.281-2.936 2.936-2.936.64 0 1.281.213 1.761.587 2.509 1.815 4.964 3.043 7.901 3.576v-10.516c-7.794-2.029-11.424-4.964-11.424-10.996 0-5.712 4.537-9.662 11.21-10.196v-1.12c0-1.282 1.068-2.296 2.349-2.296zm-2.135 18.202v-9.447c-3.416.32-5.124 2.135-5.124 4.484-.001 2.241 1.013 3.629 5.124 4.963zm4.217 7.42v9.716c3.416-.374 5.285-2.082 5.285-4.644-.001-2.349-1.175-3.791-5.285-5.072z" fill="#690589"/></g></g><g><g><path d="m122.791 153.313-24.603-23.321 8.49-8.955 16.4 15.546 26.554-23.578 8.18 9.242z" fill="#526faa"/></g></g><g><g><g><path d="m122.792 155.313c-.496 0-.991-.184-1.376-.548l-24.603-23.321c-.385-.365-.609-.868-.624-1.398s.183-1.044.548-1.429l8.49-8.955c.761-.802 2.026-.835 2.828-.076l15.068 14.283 25.183-22.359c.396-.353.921-.536 1.448-.501.53.032 1.025.273 1.377.671l8.179 9.241c.731.827.655 2.089-.17 2.822l-35.02 31.067c-.38.336-.855.503-1.328.503zm-21.776-25.396 21.82 20.684 32.153-28.524-5.527-6.245-25.057 22.247c-.775.689-1.949.67-2.704-.044l-14.948-14.17z" fill="#690589"/></g></g></g><g><g><path d="m129.369 230.086h-61.578c-4.946 0-9.318-3.214-10.794-7.935l-21.737-69.542c-1.864-5.962 1.458-12.305 7.42-14.168 5.959-1.864 12.304 1.459 14.168 7.42l19.257 61.607h53.265c6.246 0 11.309 5.063 11.309 11.309s-5.064 11.309-11.31 11.309z" fill="#526faa"/></g></g><g><g><path d="m129.369 232.086h-61.578c-5.852 0-10.957-3.753-12.703-9.338l-21.737-69.542c-1.061-3.393-.737-6.996.913-10.146 1.649-3.149 4.426-5.467 7.819-6.528 3.391-1.061 6.994-.737 10.144.913 3.15 1.649 5.468 4.426 6.529 7.819l18.819 60.204h51.794c7.339 0 13.309 5.97 13.309 13.309s-5.97 13.309-13.309 13.309zm-83.305-92.165c-.933 0-1.871.142-2.787.429-2.374.742-4.316 2.363-5.47 4.566s-1.38 4.723-.639 7.096l21.737 69.542c1.221 3.907 4.792 6.532 8.885 6.532h61.578c5.133 0 9.309-4.176 9.309-9.309s-4.176-9.309-9.309-9.309h-53.263c-.875 0-1.648-.568-1.909-1.403l-19.258-61.607c-.742-2.373-2.364-4.315-4.567-5.469-1.352-.709-2.824-1.068-4.307-1.068z" fill="#690589"/></g></g><g><path d="m221.139 251.058h-22.386v-91.943c0-6.182 5.011-11.193 11.193-11.193 6.182 0 11.193 5.011 11.193 11.193z" fill="#8852a8"/></g><g><path d="m221.14 253.058h-22.386c-1.104 0-2-.896-2-2v-91.942c0-7.275 5.918-13.193 13.193-13.193s13.193 5.918 13.193 13.193v91.942c0 1.105-.896 2-2 2zm-20.387-4h18.386v-89.942c0-5.069-4.124-9.193-9.193-9.193s-9.193 4.124-9.193 9.193z" fill="#690589"/></g><g><path d="m14.243 189.13c-1.104 0-2-.896-2-2v-12c0-1.104.896-2 2-2s2 .896 2 2v12c0 1.104-.895 2-2 2z" fill="#690589"/></g></g></svg>