<?xml version="1.0" encoding="iso-8859-1"?>
<!-- Generator: Adobe Illustrator 19.0.0, SVG Export Plug-In . SVG Version: 6.00 Build 0)  -->
<svg version="1.1" id="Capa_1" xmlns="http://www.w3.org/2000/svg" xmlns:xlink="http://www.w3.org/1999/xlink" x="0px" y="0px"
	 viewBox="0 0 496 496" style="enable-background:new 0 0 496 496;" xml:space="preserve">
<path style="fill:#F0BC5E;" d="M377.984,328.248l-24.648-6.304c-1.16-3.168-2.488-6.328-3.968-9.48l13-21.928
	c1.856-3.144,1.36-7.152-1.224-9.736L327.2,246.856c-2.568-2.576-6.592-3.08-9.736-1.224l-21.928,13
	c-3.152-1.488-6.312-2.816-9.48-3.968l-6.304-24.648C278.84,226.48,275.656,224,272,224h-48c-3.656,0-6.84,2.48-7.752,6.016
	l-6.304,24.648c-3.168,1.16-6.328,2.488-9.48,3.968l-21.928-13c-3.136-1.856-7.16-1.36-9.736,1.224L134.856,280.8
	c-2.584,2.584-3.088,6.592-1.224,9.736l13,21.928c-1.488,3.152-2.816,6.312-3.968,9.48l-24.648,6.304
	C114.48,329.16,112,332.344,112,336v24h16h72c0-26.512,21.488-48,48-48s48,21.488,48,48h72h16v-24
	C384,332.344,381.52,329.16,377.984,328.248z"/>
<path d="M456,112h-8V0H48v112h-8c-22.056,0-40,17.944-40,40v256c0,22.056,17.944,40,40,40h112v32h-24v16h240v-16h-24v-32h112
	c22.056,0,40-17.944,40-40V152C496,129.944,478.056,112,456,112z M150.568,287.728l25.16-25.168l24.144,14.32l3.944-2.048
	c5.056-2.632,10.184-4.776,15.232-6.376l4.232-1.344L230.208,240h35.576l6.936,27.12l4.232,1.344
	c5.048,1.6,10.168,3.744,15.232,6.376l3.944,2.048l24.144-14.32l25.16,25.168L331.12,311.88l2.048,3.944
	c2.624,5.056,4.768,10.168,6.36,15.224l1.336,4.232L368,342.208V352H128v-9.792l27.128-6.936l1.336-4.232
	c1.6-5.056,3.736-10.168,6.36-15.224l2.048-3.944L150.568,287.728z M353.336,321.944c-1.16-3.168-2.488-6.336-3.976-9.48
	l16.168-27.272L322.8,242.464l-27.272,16.168c-3.152-1.488-6.32-2.816-9.48-3.968L278.208,224h-60.424l-7.84,30.664
	c-3.16,1.16-6.328,2.488-9.48,3.968l-27.272-16.168l-42.728,42.728l16.168,27.272c-1.488,3.144-2.816,6.312-3.976,9.48L112,329.792
	V352H64V80h368v272h-48v-22.208L353.336,321.944z M432,16v48H64V16H432z M40,128h8v240h400V128h8c13.232,0,24,10.768,24,24v232H16
	V152C16,138.768,26.768,128,40,128z M328,480H168v-32h160V480z M456,432H40c-13.232,0-24-10.768-24-24v-8h464v8
	C480,421.232,469.232,432,456,432z"/>
<polygon points="283.56,126.656 321.576,152 283.56,177.344 292.44,190.656 350.424,152 292.44,113.344 "/>
<polygon points="203.56,113.344 145.576,152 203.56,190.656 212.44,177.344 174.424,152 212.44,126.656 "/>
<rect x="197.402" y="144.026" transform="matrix(-0.3164 0.9486 -0.9486 -0.3164 470.6809 -35.1274)" width="101.189" height="16"/>
<rect x="144" y="32" width="16" height="16"/>
<rect x="112" y="32" width="16" height="16"/>
<rect x="80" y="32" width="16" height="16"/>
<g>
</g>
<g>
</g>
<g>
</g>
<g>
</g>
<g>
</g>
<g>
</g>
<g>
</g>
<g>
</g>
<g>
</g>
<g>
</g>
<g>
</g>
<g>
</g>
<g>
</g>
<g>
</g>
<g>
</g>
</svg>
