<?xml version="1.0" encoding="iso-8859-1"?>
<!-- Generator: Adobe Illustrator 19.0.0, SVG Export Plug-In . SVG Version: 6.00 Build 0)  -->
<svg version="1.1" id="Capa_1" xmlns="http://www.w3.org/2000/svg" xmlns:xlink="http://www.w3.org/1999/xlink" x="0px" y="0px"
	 viewBox="0 0 512 512" style="enable-background:new 0 0 512 512;" xml:space="preserve">
<polygon style="fill:#D1E8FF;" points="512,159.464 235.984,139.447 256,480.107 512,480.107 "/>
<polygon style="fill:#F5F5FF;" points="0,159.464 0,480.107 256,480.107 256,139.447 "/>
<polygon style="fill:#6283A3;" points="512,31.893 256,31.893 235.984,95.678 256,159.464 512,159.464 "/>
<rect y="31.893" style="fill:#9ABADB;" width="256" height="127.57"/>
<rect x="47.839" y="80.68" style="fill:#FF0099;" width="31.893" height="30"/>
<rect x="111.62" y="80.68" style="fill:#FFED94;" width="31.893" height="30"/>
<rect x="175.41" y="80.68" style="fill:#0093C4;" width="31.893" height="30"/>
<path style="fill:#9ABADB;" d="M369.982,343.221c0.015-0.525,0.04-1.047,0.04-1.575c0-29.035-23.538-52.573-52.573-52.573
	c-6.875,0-13.435,1.334-19.454,3.734c-3.871-24.842-19.997-45.616-41.995-55.973l-20.016,101.809L256,409.822h113.764
	c18.394,0,33.306-14.911,33.306-33.306C403.07,358.195,388.275,343.34,369.982,343.221z"/>
<path style="fill:#D1E8FF;" d="M224.253,229.749c-41.223,0-74.64,33.418-74.64,74.64c0,2.404,0.125,4.778,0.347,7.124
	c-23.302,4.031-41.03,24.33-41.03,48.784c0,27.352,22.173,49.524,49.525,49.524H256V236.834
	C246.365,232.297,235.609,229.749,224.253,229.749z"/>
<g>
</g>
<g>
</g>
<g>
</g>
<g>
</g>
<g>
</g>
<g>
</g>
<g>
</g>
<g>
</g>
<g>
</g>
<g>
</g>
<g>
</g>
<g>
</g>
<g>
</g>
<g>
</g>
<g>
</g>
</svg>
