<svg id="Layer_1" enable-background="new 0 0 256 256" height="512" viewBox="0 0 256 256" width="512" xmlns="http://www.w3.org/2000/svg"><g><path d="m177.864 156.379h-150.791c-5.28 0-9.6-4.32-9.6-9.6v-117.406c0-5.28 4.32-9.6 9.6-9.6h150.791c5.28 0 9.6 4.32 9.6 9.6v117.406c0 5.28-4.32 9.6-9.6 9.6z" fill="#63bce7"/><g><path d="m169.405 146.779v-117.406c0-5.28-4.32-9.6-9.6-9.6h18.059c5.28 0 9.6 4.32 9.6 9.6v117.406c0 5.28-4.32 9.6-9.6 9.6h-18.059c5.28 0 9.6-4.32 9.6-9.6z" fill="#67dceb"/></g><g><path d="m35.532 146.779v-117.406c0-5.28 4.32-9.6 9.6-9.6h-18.059c-5.28 0-9.6 4.32-9.6 9.6v117.406c0 5.28 4.32 9.6 9.6 9.6h18.059c-5.28 0-9.6-4.32-9.6-9.6z" fill="#6377e7"/></g><g fill="#9e9e9e"><g><path d="m40.673 59.161h81.268v7.336h-81.268z"/><path d="m130.221 59.161h9.72v7.336h-9.72z"/></g><g><path d="m40.673 75.44h30.018v7.336h-30.018z"/><path d="m79.774 75.44h60.167v7.336h-60.167z"/></g><g><path d="m40.673 91.719h7.504v7.336h-7.504z"/><path d="m54.917 91.719h85.024v7.336h-85.024z"/></g></g><g><path d="m187.464 29.377c0-5.283-4.322-9.605-9.605-9.605h-150.781c-5.283 0-9.605 4.322-9.605 9.605v22.088h169.991z" fill="#f46275"/></g><g><path d="m45.136 19.773h-18.058c-5.283 0-9.605 4.322-9.605 9.605v22.088h18.059v-22.089c0-5.282 4.322-9.604 9.604-9.604z" fill="#f43075"/></g><g><path d="m159.801 19.773h18.059c5.283 0 9.605 4.322 9.605 9.605v22.088h-18.059v-22.089c-.001-5.282-4.323-9.604-9.605-9.604z" fill="#f48875"/></g><g><g fill="#f8af23"><circle cx="37.423" cy="35.619" r="6.627"/><circle cx="57.737" cy="35.619" r="6.627"/><circle cx="78.05" cy="35.619" r="6.627"/></g><path d="m171.24 38.487h-35.417c-1.596 0-2.901-1.306-2.901-2.901 0-1.596 1.306-2.901 2.901-2.901h35.417c1.596 0 2.901 1.306 2.901 2.901 0 1.595-1.305 2.901-2.901 2.901z" fill="#9e9e9e"/></g><path d="m228.927 224.682h-150.791c-5.28 0-9.6-4.32-9.6-9.6v-117.406c0-5.28 4.32-9.6 9.6-9.6h150.791c5.28 0 9.6 4.32 9.6 9.6v117.406c0 5.28-4.32 9.6-9.6 9.6z" fill="#63bce7"/><g><path d="m228.927 88.076h-18.059c5.28 0 9.6 4.32 9.6 9.6v117.406c0 5.28-4.32 9.6-9.6 9.6h18.059c5.28 0 9.6-4.32 9.6-9.6v-117.406c0-5.28-4.32-9.6-9.6-9.6z" fill="#67dceb"/></g><g><path d="m238.527 97.68c0-5.283-4.322-9.605-9.605-9.605h-150.781c-5.283 0-9.605 4.322-9.605 9.605v22.088h169.991z" fill="#f8af23"/></g><g><path d="m228.922 88.076h-18.059c5.282 0 9.605 4.322 9.605 9.605v22.088h18.059v-22.089c0-5.282-4.322-9.604-9.605-9.604z" fill="#f8d323"/></g><g><g fill="#f46275"><circle cx="88.486" cy="103.922" r="6.627"/><circle cx="108.799" cy="103.922" r="6.627"/><circle cx="129.113" cy="103.922" r="6.627"/></g><path d="m222.303 106.79h-35.417c-1.596 0-2.901-1.306-2.901-2.901 0-1.596 1.306-2.901 2.901-2.901h35.417c1.596 0 2.901 1.306 2.901 2.901 0 1.595-1.305 2.901-2.901 2.901z" fill="#9e9e9e"/></g><path d="m94.194 140.225h118.675v64h-118.675z" fill="#f46275"/><path d="m212.869 204.225v-23.125c-12.198-11.37-33.12-18.875-56.897-18.875-27.346 0-50.919 9.926-61.778 24.246v17.754z" fill="#f8af23"/><path d="m128 167.588c0 4.563-3.699 8.262-8.262 8.262s-8.262-3.699-8.262-8.262 3.699-18.988 8.262-18.988 8.262 14.425 8.262 18.988z" fill="#63bce7"/><g><path d="m194.627 157.789c0 3.176-2.575 5.751-5.751 5.751s-5.751-2.575-5.751-5.751 2.575-13.217 5.751-13.217 5.751 10.041 5.751 13.217z" fill="#63bce7"/><g fill="#3f3679"><path d="m27.073 157.879h39.963v57.202c0 3.196 1.366 6.073 3.535 8.101h-42.871c-.829 0-1.5.672-1.5 1.5s.671 1.5 1.5 1.5h50.436 150.164.627c6.12 0 11.1-4.979 11.1-11.101v-95.312-22.088-.005c0-6.12-4.979-11.1-11.1-11.1h-.005-39.958v-35.111-22.087-.005c0-6.121-4.979-11.101-11.1-11.101h-.005-150.781-.004c-6.121 0-11.1 4.979-11.1 11.101v.005 22.087 95.313c-.001 6.121 4.979 11.101 11.099 11.101zm39.969-60.323h-10.625v-4.337h11.561c-.587 1.33-.919 2.796-.936 4.337zm161.885 125.626h-.627-150.164c-4.466 0-8.1-3.634-8.1-8.101v-93.812h166.99v93.812c0 4.467-3.633 8.101-8.099 8.101zm8.099-125.501v20.588h-166.99v-20.588c0-4.469 3.636-8.104 8.104-8.104h150.781c4.47-.001 8.105 3.635 8.105 8.104zm-59.167-76.409c4.469 0 8.104 3.636 8.104 8.105v20.587h-166.99v-20.586c0-4.47 3.636-8.105 8.104-8.105h150.782zm-158.886 31.693h166.991v33.611h-107.823-.004c-3.248 0-6.166 1.411-8.198 3.643h-15.022c-.829 0-1.5.672-1.5 1.5v7.337c0 .828.671 1.5 1.5 1.5h12.12v19.213 35.11h-39.964c-4.466 0-8.1-3.634-8.1-8.101z"/><path d="m40.673 67.997h81.268c.829 0 1.5-.672 1.5-1.5v-7.336c0-.828-.671-1.5-1.5-1.5h-81.268c-.829 0-1.5.672-1.5 1.5v7.336c0 .828.672 1.5 1.5 1.5zm1.5-7.336h78.268v4.336h-78.268z"/><path d="m130.221 67.997h9.72c.828 0 1.5-.672 1.5-1.5v-7.336c0-.828-.672-1.5-1.5-1.5h-9.72c-.828 0-1.5.672-1.5 1.5v7.336c0 .828.672 1.5 1.5 1.5zm1.5-7.336h6.72v4.336h-6.72z"/><path d="m40.673 84.276h30.017c.829 0 1.5-.672 1.5-1.5v-7.336c0-.828-.671-1.5-1.5-1.5h-30.017c-.829 0-1.5.672-1.5 1.5v7.336c0 .828.672 1.5 1.5 1.5zm1.5-7.336h27.017v4.336h-27.017z"/><path d="m139.94 73.94h-60.166c-.829 0-1.5.672-1.5 1.5v7.336c0 .828.671 1.5 1.5 1.5h60.167c.828 0 1.5-.672 1.5-1.5v-7.336c-.001-.828-.672-1.5-1.501-1.5zm-1.5 7.336h-57.166v-4.336h57.167v4.336z"/><path d="m40.673 100.556h7.504c.829 0 1.5-.672 1.5-1.5v-7.337c0-.828-.671-1.5-1.5-1.5h-7.504c-.829 0-1.5.672-1.5 1.5v7.337c0 .828.672 1.5 1.5 1.5zm1.5-7.337h4.504v4.337h-4.504z"/><path d="m37.423 43.746c4.481 0 8.127-3.646 8.127-8.127s-3.646-8.128-8.127-8.128-8.127 3.646-8.127 8.128 3.646 8.127 8.127 8.127zm0-13.255c2.827 0 5.127 2.301 5.127 5.128s-2.3 5.127-5.127 5.127-5.127-2.3-5.127-5.127 2.3-5.128 5.127-5.128z"/><path d="m57.737 43.746c4.481 0 8.127-3.646 8.127-8.127s-3.646-8.128-8.127-8.128-8.127 3.646-8.127 8.128 3.645 8.127 8.127 8.127zm0-13.255c2.827 0 5.127 2.301 5.127 5.128s-2.3 5.127-5.127 5.127-5.127-2.3-5.127-5.127 2.3-5.128 5.127-5.128z"/><path d="m78.05 43.746c4.481 0 8.127-3.646 8.127-8.127s-3.646-8.128-8.127-8.128-8.127 3.646-8.127 8.128 3.646 8.127 8.127 8.127zm0-13.255c2.827 0 5.127 2.301 5.127 5.128s-2.3 5.127-5.127 5.127-5.127-2.3-5.127-5.127 2.3-5.128 5.127-5.128z"/><path d="m135.823 39.987h35.417c2.427 0 4.401-1.975 4.401-4.401s-1.975-4.401-4.401-4.401h-35.417c-2.427 0-4.401 1.975-4.401 4.401s1.974 4.401 4.401 4.401zm0-5.802h35.417c.772 0 1.401.629 1.401 1.401s-.629 1.401-1.401 1.401h-35.417c-.772 0-1.401-.629-1.401-1.401s.629-1.401 1.401-1.401z"/><path d="m88.486 112.05c4.481 0 8.127-3.646 8.127-8.128s-3.646-8.127-8.127-8.127-8.127 3.646-8.127 8.127 3.645 8.128 8.127 8.128zm0-13.255c2.827 0 5.127 2.3 5.127 5.127s-2.3 5.128-5.127 5.128-5.127-2.301-5.127-5.128 2.3-5.127 5.127-5.127z"/><path d="m108.799 112.05c4.481 0 8.127-3.646 8.127-8.128s-3.646-8.127-8.127-8.127-8.127 3.646-8.127 8.127 3.646 8.128 8.127 8.128zm0-13.255c2.827 0 5.127 2.3 5.127 5.127s-2.3 5.128-5.127 5.128-5.127-2.301-5.127-5.128 2.3-5.127 5.127-5.127z"/><path d="m129.113 112.05c4.481 0 8.127-3.646 8.127-8.128s-3.646-8.127-8.127-8.127c-4.482 0-8.128 3.646-8.128 8.127s3.646 8.128 8.128 8.128zm0-13.255c2.827 0 5.127 2.3 5.127 5.127s-2.3 5.128-5.127 5.128c-2.828 0-5.128-2.301-5.128-5.128s2.301-5.127 5.128-5.127z"/><path d="m186.886 108.29h35.417c2.427 0 4.401-1.975 4.401-4.401s-1.975-4.401-4.401-4.401h-35.417c-2.427 0-4.401 1.975-4.401 4.401s1.974 4.401 4.401 4.401zm0-5.803h35.417c.772 0 1.401.629 1.401 1.401s-.629 1.401-1.401 1.401h-35.417c-.772 0-1.401-.629-1.401-1.401s.628-1.401 1.401-1.401z"/><path d="m27.7 234.728h-18.172c-.829 0-1.5.672-1.5 1.5s.671 1.5 1.5 1.5h18.172c.829 0 1.5-.672 1.5-1.5s-.671-1.5-1.5-1.5z"/><path d="m246.472 234.728h-18.172c-.828 0-1.5.672-1.5 1.5s.672 1.5 1.5 1.5h18.172c.828 0 1.5-.672 1.5-1.5s-.672-1.5-1.5-1.5z"/><path d="m213.788 234.728h-171.577c-.829 0-1.5.672-1.5 1.5s.671 1.5 1.5 1.5h171.577c.828 0 1.5-.672 1.5-1.5s-.672-1.5-1.5-1.5z"/><path d="m9.528 226.182h7.803c.829 0 1.5-.672 1.5-1.5s-.671-1.5-1.5-1.5h-7.803c-.829 0-1.5.672-1.5 1.5s.671 1.5 1.5 1.5z"/><path d="m237.169 224.682c0 .828.672 1.5 1.5 1.5h7.803c.828 0 1.5-.672 1.5-1.5s-.672-1.5-1.5-1.5h-7.803c-.828 0-1.5.672-1.5 1.5z"/><path d="m212.869 138.725h-118.675c-.829 0-1.5.672-1.5 1.5v64c0 .828.671 1.5 1.5 1.5h118.675c.828 0 1.5-.672 1.5-1.5v-64c0-.829-.672-1.5-1.5-1.5zm-1.5 3v36.096c-5.757-4.708-12.924-8.563-20.993-11.419v-1.52c3.28-.693 5.751-3.609 5.751-7.093 0-2.811-2.417-14.717-7.251-14.717s-7.251 11.906-7.251 14.717c0 3.484 2.47 6.4 5.751 7.093v.515c-9.599-3.02-20.319-4.672-31.404-4.672-9.318 0-18.338 1.134-26.84 3.346-1.057-6.339-4.349-16.971-9.394-16.971-6.208 0-9.762 16.102-9.762 20.488 0 1.263.249 2.466.687 3.575-6.019 3.214-11.038 6.977-14.969 11.22v-40.659h115.675zm-22.493 10.832c-.828 0-1.5.672-1.5 1.5v7.696c-1.603-.609-2.751-2.15-2.751-3.964 0-4.15 2.98-11.717 4.251-11.717s4.251 7.566 4.251 11.717c0 1.814-1.148 3.355-2.751 3.964v-7.696c0-.828-.672-1.5-1.5-1.5zm-69.138 8.168c-.829 0-1.5.672-1.5 1.5v11.952c-3.008-.685-5.262-3.376-5.262-6.588 0-5.208 4.001-17.488 6.762-17.488s6.762 12.28 6.762 17.488c0 3.212-2.254 5.903-5.262 6.588v-11.952c0-.829-.672-1.5-1.5-1.5zm-24.044 42v-15.785c.053-.049.108-.096.154-.154 3.893-4.924 9.537-9.416 16.33-13.033 1.491 1.825 3.63 3.092 6.06 3.469v10.861h-3.5c-.829 0-1.5.672-1.5 1.5s.671 1.5 1.5 1.5h10c.829 0 1.5-.672 1.5-1.5s-.671-1.5-1.5-1.5h-3.5v-10.861c4.671-.726 8.262-4.763 8.262-9.634 0-.155-.006-.329-.014-.512 8.373-2.219 17.276-3.352 26.486-3.352 11.136 0 21.883 1.69 31.404 4.794v3.081h-1.98c-.828 0-1.5.672-1.5 1.5s.672 1.5 1.5 1.5h6.961c.828 0 1.5-.672 1.5-1.5s-.672-1.5-1.5-1.5h-1.98v-2.029c8.239 3.032 15.438 7.157 20.993 12.194v20.96h-115.676z"/></g></g></g></svg>