<?xml version="1.0" encoding="iso-8859-1"?>
<!-- Generator: Adobe Illustrator 19.0.0, SVG Export Plug-In . SVG Version: 6.00 Build 0)  -->
<svg version="1.1" id="Layer_1" xmlns="http://www.w3.org/2000/svg" xmlns:xlink="http://www.w3.org/1999/xlink" x="0px" y="0px"
	 viewBox="0 0 496 496" style="enable-background:new 0 0 496 496;" xml:space="preserve">
<g>
	<path style="fill:#FFA64D;" d="M224,368H32V144h192V368z"/>
	<path style="fill:#FFA64D;" d="M416,272H240V144h176V272z"/>
</g>
<g>
	<path style="fill:#333333;" d="M496,144C496,64.6,431.4,0,352,0c-67.632,0-125.496,46.736-140.288,112H40
		c-22.056,0-40,17.944-40,40v256c0,22.056,17.944,40,40,40h80v32H88v16h272v-16h-32v-32h80c22.056,0,40-17.944,40-40V251.12
		C478.472,223.792,496,185.04,496,144z M479.592,136h-34.984c-3.104-7.072-8.176-13.08-14.552-17.32
		c-2.456-15.88-7.112-30.12-12.848-42.864c14.24-5.8,24.304-12.368,30.184-16.872C465.928,79.72,477.76,106.496,479.592,136z
		 M360,24.736c9.584,8.624,23.024,22.64,34.376,41.792c-9.936,2.68-21.392,4.64-34.376,5.224V24.736z M376.816,18.456
		c22.32,4.408,42.504,14.672,59.04,29.064c-5.344,3.832-14.016,9.144-25.928,13.872C399.456,42.856,387.08,28.48,376.816,18.456z
		 M344,30.296V71.76c-12.016-0.544-22.768-2.24-32.176-4.624C322.16,51.4,334.112,39.04,344,30.296z M295.944,62.144
		c-13-4.936-22.344-10.68-27.952-14.72c18.376-15.968,41.28-26.624,66.344-30.088C322.56,27.544,308.064,42.536,295.944,62.144z
		 M344,87.752V112h-52.016c2.736-11.056,6.744-21.216,11.528-30.488C315.104,84.768,328.592,87.128,344,87.752z M360,87.752
		c16.056-0.656,30.04-3.184,41.96-6.648c4.408,9.504,8.08,19.952,10.56,31.352c-1.504-0.168-2.968-0.456-4.52-0.456h-48V87.752z
		 M256.448,58.832c6.032,4.64,16.568,11.544,31.632,17.512c-5.304,10.76-9.632,22.664-12.472,35.656h-47.512
		C233.28,91.784,243.168,73.72,256.448,58.832z M40,128h368c13.232,0,24,10.768,24,24v232H16V152C16,138.768,26.768,128,40,128z
		 M312,480H136v-32h176V480z M408,432H40c-13.232,0-24-10.768-24-24v-8h416v8C432,421.232,421.232,432,408,432z M448,152h31.56
		c-1.776,28.416-12.888,55.184-31.56,76.416V152z"/>
	<rect x="240" y="352" style="fill:#333333;" width="144" height="16"/>
	<rect x="400" y="352" style="fill:#333333;" width="16" height="16"/>
	<rect x="240" y="320" style="fill:#333333;" width="176" height="16"/>
	<rect x="240" y="288" style="fill:#333333;" width="176" height="16"/>
</g>
<g>
</g>
<g>
</g>
<g>
</g>
<g>
</g>
<g>
</g>
<g>
</g>
<g>
</g>
<g>
</g>
<g>
</g>
<g>
</g>
<g>
</g>
<g>
</g>
<g>
</g>
<g>
</g>
<g>
</g>
</svg>
