<?xml version="1.0" encoding="iso-8859-1"?>
<!-- Generator: Adobe Illustrator 19.0.0, SVG Export Plug-In . SVG Version: 6.00 Build 0)  -->
<svg version="1.1" id="Capa_1" xmlns="http://www.w3.org/2000/svg" xmlns:xlink="http://www.w3.org/1999/xlink" x="0px" y="0px"
	 viewBox="0 0 496 496" style="enable-background:new 0 0 496 496;" xml:space="preserve">
<g>
	<path style="fill:#F0BC5E;" d="M296,264H72c-4.424,0-8-3.576-8-8V128c0-4.424,3.576-8,8-8h224c4.424,0,8,3.576,8,8v128
		C304,260.424,300.424,264,296,264z"/>
	<path style="fill:#F0BC5E;" d="M290.064,365.072l-15.784-4.2c-0.632-1.68-1.336-3.352-2.096-5.016l8.192-14.152
		c1.824-3.136,1.296-7.104-1.264-9.664l-27.16-27.16c-2.56-2.56-6.536-3.088-9.664-1.264l-14.152,8.192
		c-1.664-0.76-3.336-1.464-5.016-2.096l-4.2-15.784C218,290.44,214.832,288,211.2,288h-38.4c-3.624,0-6.8,2.44-7.728,5.936
		l-4.2,15.784c-1.68,0.632-3.352,1.336-5.016,2.096l-14.152-8.192c-3.136-1.824-7.104-1.296-9.664,1.264l-27.16,27.16
		c-2.56,2.56-3.088,6.528-1.264,9.664l8.192,14.152c-0.76,1.664-1.464,3.336-2.096,5.016l-15.784,4.2C90.44,366,88,369.168,88,372.8
		v38.4c0,3.624,2.44,6.8,5.936,7.728l15.784,4.2c0.632,1.68,1.336,3.352,2.096,5.016l-8.192,14.152
		c-1.824,3.136-1.296,7.104,1.264,9.664l27.16,27.16c2.56,2.56,6.528,3.088,9.664,1.264l14.152-8.192
		c1.664,0.76,3.336,1.464,5.016,2.096l4.2,15.784C166,493.56,169.168,496,172.8,496h38.4c3.624,0,6.8-2.44,7.728-5.936l4.2-15.784
		c1.68-0.632,3.352-1.336,5.016-2.096l14.152,8.192c3.128,1.824,7.104,1.296,9.664-1.264l27.16-27.16
		c2.56-2.56,3.088-6.528,1.264-9.664l-8.192-14.152c0.76-1.664,1.464-3.336,2.096-5.016l15.784-4.2
		C293.56,418,296,414.832,296,411.2v-38.4C296,369.168,293.56,366,290.064,365.072z M192,440c-26.512,0-48-21.488-48-48
		s21.488-48,48-48s48,21.488,48,48S218.512,440,192,440z"/>
</g>
<path d="M496,0H0v400h88v-16H16V80h464v304h-56V144c0-26.472-21.528-48-48-48s-48,21.528-48,48v240h-32v16h32v26.56l48,67.2l48-67.2
	V400h72V0z M384,416V247.816h-16V416h-24V216h24v15.816h16V216h24v200H384z M408,200h-64v-16h64V200z M376,112
	c17.648,0,32,14.352,32,32v24h-64v-24C344,126.352,358.352,112,376,112z M351.544,432h48.912L376,466.232L351.544,432z M16,64V16
	h464v48H16z"/>
<rect x="96" y="152" width="176" height="16"/>
<rect x="96" y="184" width="176" height="16"/>
<path d="M192,336c-30.872,0-56,25.12-56,56s25.128,56,56,56s56-25.12,56-56S222.872,336,192,336z M192,432
	c-22.056,0-40-17.944-40-40s17.944-40,40-40s40,17.944,40,40S214.056,432,192,432z"/>
<rect x="32" y="32" width="16" height="16"/>
<rect x="64" y="32" width="16" height="16"/>
<rect x="96" y="32" width="16" height="16"/>
<rect x="120" y="216" width="16" height="16"/>
<rect x="176" y="216" width="16" height="16"/>
<rect x="232" y="216" width="16" height="16"/>
<g>
</g>
<g>
</g>
<g>
</g>
<g>
</g>
<g>
</g>
<g>
</g>
<g>
</g>
<g>
</g>
<g>
</g>
<g>
</g>
<g>
</g>
<g>
</g>
<g>
</g>
<g>
</g>
<g>
</g>
</svg>
