<?xml version="1.0" encoding="iso-8859-1"?>
<!-- Generator: Adobe Illustrator 19.0.0, SVG Export Plug-In . SVG Version: 6.00 Build 0)  -->
<svg version="1.1" id="Capa_1" xmlns="http://www.w3.org/2000/svg" xmlns:xlink="http://www.w3.org/1999/xlink" x="0px" y="0px"
	 viewBox="0 0 423.253 423.253" style="enable-background:new 0 0 423.253 423.253;" xml:space="preserve">
<polyline style="fill:#FFFFFF;" points="416.427,348.727 416.427,399.36 6.827,399.36 6.827,85.333 416.427,85.333 416.427,303.783 
	"/>
<path style="fill:#602F75;" d="M416.427,406.187H6.827c-3.768,0-6.827-3.058-6.827-6.827V85.333c0-3.768,3.058-6.827,6.827-6.827
	h409.6c3.768,0,6.827,3.058,6.827,6.827v218.45c0,3.768-3.058,6.827-6.827,6.827c-3.768,0-6.827-3.058-6.827-6.827V92.16H13.653
	v300.373H409.6v-43.807c0-3.768,3.058-6.827,6.827-6.827c3.768,0,6.827,3.058,6.827,6.827v50.633
	C423.253,403.128,420.195,406.187,416.427,406.187z"/>
<rect x="6.827" y="44.373" style="fill:#EAEAEA;" width="409.6" height="40.96"/>
<path style="fill:#602F75;" d="M416.427,92.16H6.827C3.058,92.16,0,89.102,0,85.333v-40.96c0-3.768,3.058-6.827,6.827-6.827h409.6
	c3.768,0,6.827,3.058,6.827,6.827v40.96C423.253,89.102,420.195,92.16,416.427,92.16z M13.653,78.507H409.6V51.2H13.653V78.507z"/>
<circle style="fill:#EA3457;" cx="47.787" cy="44.373" r="20.48"/>
<path style="fill:#602F75;" d="M47.787,71.68c-15.056,0-27.307-12.25-27.307-27.307s12.25-27.307,27.307-27.307
	s27.307,12.25,27.307,27.307S62.843,71.68,47.787,71.68z M47.787,30.72c-7.53,0-13.653,6.124-13.653,13.653
	s6.124,13.653,13.653,13.653S61.44,51.903,61.44,44.373S55.316,30.72,47.787,30.72z"/>
<circle style="fill:#FFE600;" cx="116.053" cy="44.373" r="20.48"/>
<path style="fill:#602F75;" d="M116.053,71.68c-15.056,0-27.307-12.25-27.307-27.307s12.25-27.307,27.307-27.307
	s27.307,12.25,27.307,27.307S131.11,71.68,116.053,71.68z M116.053,30.72c-7.53,0-13.653,6.124-13.653,13.653
	s6.124,13.653,13.653,13.653s13.653-6.124,13.653-13.653S123.583,30.72,116.053,30.72z"/>
<circle style="fill:#00E7FF;" cx="184.32" cy="44.373" r="20.48"/>
<path style="fill:#602F75;" d="M184.32,71.68c-15.056,0-27.307-12.25-27.307-27.307s12.25-27.307,27.307-27.307
	c15.056,0,27.307,12.25,27.307,27.307S199.376,71.68,184.32,71.68z M184.32,30.72c-7.53,0-13.653,6.124-13.653,13.653
	s6.124,13.653,13.653,13.653s13.653-6.124,13.653-13.653S191.85,30.72,184.32,30.72z"/>
<g>
	<rect x="75.093" y="208.213" style="fill:#FFFFFF;" width="273.067" height="191.147"/>
</g>
<path style="fill:#602F75;" d="M348.16,406.187H75.093c-3.768,0-6.827-3.058-6.827-6.827V208.213c0-3.768,3.058-6.827,6.827-6.827
	H348.16c3.768,0,6.827,3.058,6.827,6.827V399.36C354.987,403.128,351.928,406.187,348.16,406.187z M81.92,392.533h259.413V215.04
	H81.92V392.533z"/>
<rect x="75.093" y="112.64" style="fill:#FFE600;" width="273.067" height="68.267"/>
<g>
	<path style="fill:#602F75;" d="M348.16,187.733H75.093c-3.768,0-6.827-3.058-6.827-6.827V112.64c0-3.768,3.058-6.827,6.827-6.827
		H348.16c3.768,0,6.827,3.058,6.827,6.827v68.267C354.987,184.675,351.928,187.733,348.16,187.733z M81.92,174.08h259.413v-54.613
		H81.92V174.08z"/>
	<path style="fill:#602F75;" d="M327.68,242.347H95.573c-3.768,0-6.827-3.058-6.827-6.827s3.058-6.827,6.827-6.827H327.68
		c3.768,0,6.827,3.058,6.827,6.827S331.448,242.347,327.68,242.347z"/>
</g>
<path style="fill:#EA3457;" d="M327.68,269.653H95.573c-3.768,0-6.827-3.058-6.827-6.827c0-3.768,3.058-6.827,6.827-6.827H327.68
	c3.768,0,6.827,3.058,6.827,6.827C334.507,266.595,331.448,269.653,327.68,269.653z"/>
<g>
	<path style="fill:#602F75;" d="M327.68,296.96H95.573c-3.768,0-6.827-3.058-6.827-6.827s3.058-6.827,6.827-6.827H327.68
		c3.768,0,6.827,3.058,6.827,6.827S331.448,296.96,327.68,296.96z"/>
	<path style="fill:#602F75;" d="M150.187,351.573H95.573c-3.768,0-6.827-3.058-6.827-6.827s3.058-6.827,6.827-6.827h54.613
		c3.768,0,6.827,3.058,6.827,6.827S153.955,351.573,150.187,351.573z"/>
	<path style="fill:#602F75;" d="M150.187,324.267H95.573c-3.768,0-6.827-3.058-6.827-6.827s3.058-6.827,6.827-6.827h54.613
		c3.768,0,6.827,3.058,6.827,6.827S153.955,324.267,150.187,324.267z"/>
</g>
<path style="fill:#EA3457;" d="M150.187,378.88H95.573c-3.768,0-6.827-3.058-6.827-6.827s3.058-6.827,6.827-6.827h54.613
	c3.768,0,6.827,3.058,6.827,6.827S153.955,378.88,150.187,378.88z"/>
<g>
	<path style="fill:#602F75;" d="M327.68,324.267h-47.787c-3.768,0-6.827-3.058-6.827-6.827s3.058-6.827,6.827-6.827h47.787
		c3.768,0,6.827,3.058,6.827,6.827S331.448,324.267,327.68,324.267z"/>
	<path style="fill:#602F75;" d="M327.68,351.573h-47.787c-3.768,0-6.827-3.058-6.827-6.827s3.058-6.827,6.827-6.827h47.787
		c3.768,0,6.827,3.058,6.827,6.827S331.448,351.573,327.68,351.573z"/>
	<path style="fill:#602F75;" d="M327.68,378.88h-47.787c-3.768,0-6.827-3.058-6.827-6.827s3.058-6.827,6.827-6.827h47.787
		c3.768,0,6.827,3.058,6.827,6.827S331.448,378.88,327.68,378.88z"/>
</g>
<g>
	<rect x="177.493" y="317.44" style="fill:#EA3457;" width="75.093" height="54.613"/>
	<path style="fill:#EA3457;" d="M252.587,378.88h-75.093c-3.768,0-6.827-3.058-6.827-6.827V317.44c0-3.768,3.058-6.827,6.827-6.827
		h75.093c3.768,0,6.827,3.058,6.827,6.827v54.613C259.413,375.822,256.355,378.88,252.587,378.88z M184.32,365.227h61.44v-40.96
		h-61.44V365.227z"/>
</g>
<g>
</g>
<g>
</g>
<g>
</g>
<g>
</g>
<g>
</g>
<g>
</g>
<g>
</g>
<g>
</g>
<g>
</g>
<g>
</g>
<g>
</g>
<g>
</g>
<g>
</g>
<g>
</g>
<g>
</g>
</svg>
