<svg height="512" viewBox="0 0 64 64" width="512" xmlns="http://www.w3.org/2000/svg"><path d="m52 43 6.94 10.8-2.94 2.2-8-10v-3z" fill="#898890"/><path d="m58.94 53.8 2.06 3.2-4 4-2-2 1-3z" fill="#57565c"/><path d="m48 57v4h-6v-2l2-2z" fill="#57565c"/><path d="m48 46v11h-4v-14h4z" fill="#787680"/><path d="m46 29v5h-2l-9.31-5.92 2.04-2.72 7.27 3.64z" fill="#3d9ae2"/><path d="m36 25 .73.36-2.04 2.72-1.69-1.08v-5h2z" fill="#ffb655"/><path d="m50 23.91v5.09h-4l-2-3v-3h2z" fill="#ffb655"/><path d="m50 29 2 14h-4-4v-9h2v-5z" fill="#5aaae7"/><path d="m50 19v4.91l-4-.91h-2-1l-2-4z" fill="#787680"/><path d="m33 9v24a2.006 2.006 0 0 1 -2 2h-26a2.006 2.006 0 0 1 -2-2v-24z" fill="#5aaae7"/><path d="m5 3h26a2.006 2.006 0 0 1 2 2v4h-30v-4a2.006 2.006 0 0 1 2-2z" fill="#ff5023"/><path d="m33 11.03v21.97a2.006 2.006 0 0 1 -2 2h-24.04a88.519 88.519 0 0 0 26.04-23.97z" fill="#3d9ae2"/><path d="m61.841 56.459-8.882-13.817-1.959-13.712v-9.93a1 1 0 0 0 -1-1h-9a1 1 0 0 0 -.9 1.447l2 4a1 1 0 0 0 .9.553v2a1.006 1.006 0 0 0 .168.555l.911 1.367-7.261-3.631-.869-2.607a1 1 0 0 0 -.949-.684h-1v-16a3 3 0 0 0 -3-3h-26a3 3 0 0 0 -3 3v28a3 3 0 0 0 3 3h26a3 3 0 0 0 3-3v-4.178l9 5.727v22.037l-1.707 1.707a1 1 0 0 0 -.293.707v2a1 1 0 0 0 1 1h6a1 1 0 0 0 1-1v-12.149l5.879 7.349-.828 2.484a1 1 0 0 0 .242 1.023l2 2a1 1 0 0 0 1.414 0l4-4a1 1 0 0 0 .134-1.248zm-14.841-.459h-2v-12h2zm-2-14v-7h1a1 1 0 0 0 1-1v-4h2.133l1.714 12zm-2.382-22h6.382v2.655l-2.779-.631a1.1 1.1 0 0 0 -.221-.024h-2.382zm3.27 4 3.112.706v3.294h-2.465l-1.535-2.3v-1.7zm-1.888 6h1v3h-.709l-8.151-5.187.886-1.182 6.527 3.269a1 1 0 0 0 .447.1zm-9.721-7 .772 2.316a1 1 0 0 0 .2.346l-.806 1.074-.445-.285v-3.451zm-29.279-19h26a1 1 0 0 1 1 1v3h-28v-3a1 1 0 0 1 1-1zm27 29a1 1 0 0 1 -1 1h-26a1 1 0 0 1 -1-1v-23h28zm15 27h-4v-.586l1.414-1.414h2.586zm2-14.351v-1.649h2.454l6.146 9.556-1.421 1.063zm8 13.937-.856-.857.706-2.116 1.831-1.37 1.042 1.62z"/><path d="m6 5h2v2h-2z"/><path d="m10 5h2v2h-2z"/><path d="m14 5h2v2h-2z"/><path d="m8 14h2v2h-2z"/><path d="m12 14h16v2h-16z"/><path d="m8 18h10v2h-10z"/><path d="m20 18h2v2h-2z"/><path d="m24 18h4v2h-4z"/><path d="m8 22h20v2h-20z"/><path d="m8 26h20v2h-20z"/></svg>